<?xml version="1.0" encoding="UTF-8" standalone="no"?>
<svg
   viewBox="0 0 20.385 19.025"
   version="1.1"
   id="svg1"
   sodipodi:docname="usbcable.svg"
   width="20.385"
   height="19.025"
   inkscape:version="1.3.2 (091e20e, 2023-11-25, custom)"
   xmlns:inkscape="http://www.inkscape.org/namespaces/inkscape"
   xmlns:sodipodi="http://sodipodi.sourceforge.net/DTD/sodipodi-0.dtd"
   xmlns="http://www.w3.org/2000/svg"
   xmlns:svg="http://www.w3.org/2000/svg">
  <defs
     id="defs1" />
  <sodipodi:namedview
     id="namedview1"
     pagecolor="#ffffff"
     bordercolor="#000000"
     borderopacity="0.25"
     inkscape:showpageshadow="2"
     inkscape:pageopacity="0.0"
     inkscape:pagecheckerboard="true"
     inkscape:deskcolor="#d1d1d1"
     inkscape:zoom="48.875"
     inkscape:cx="10.189258"
     inkscape:cy="9.5038363"
     inkscape:window-width="2560"
     inkscape:window-height="1369"
     inkscape:window-x="2552"
     inkscape:window-y="-8"
     inkscape:window-maximized="1"
     inkscape:current-layer="svg1" />
  <path
     d="m 5.2425,1.0125 c -1.37,1.38 -1.37,3.6 0,4.97 l 8.49,8.48 c 0.58,0.59 0.58,1.55 0,2.12 -0.59,0.59 -1.54,0.59 -2.13,0 l -4.24,-4.24 1.06,-1.06 -3.53,-3.54 -0.36,0.36 -1.41,-1.42 c -0.39,-0.39 -1.02,-0.39 -1.43,0 l -1.4,1.42 c -0.39,0.41 -0.39,1.02 0,1.41 l 1.4,1.41 -0.34,0.36 3.54,3.53 1.06,-1.06 4.24,4.26 c 1.37,1.35 3.58,1.35 4.95,0 1.37,-1.38 1.37,-3.6 0,-4.96 l -8.49,-8.49 c -0.58,-0.59 -0.58,-1.55 0,-2.12 0.59,-0.59 1.54,-0.59 2.13,0 l 4.24,4.24 -1.06,1.06 3.53,3.54 0.36,-0.36 1.41,1.42 c 0.39,0.39 1.03,0.39 1.43,0 l 1.4,-1.42 c 0.39,-0.41 0.39,-1.02 0,-1.41 l -1.4,-1.41 0.34,-0.36 -3.54,-3.53 -1.06,1.06 -4.24,-4.26 c -1.37,-1.35 -3.58,-1.35 -4.95,0 m -4.24,7.79 1.41,-1.41 1.42,1.41 -1.42,1.42 m 14.14,0 1.42,-1.42 1.41,1.42 -1.41,1.41 z"
     id="path1"
     style="fill:#ffffff;fill-opacity:1" />
</svg>
