<?xml version="1.0" encoding="UTF-8" standalone="no"?>
<svg
   viewBox="0 0 24 24"
   version="1.1"
   id="svg1"
   sodipodi:docname="circle-outline-green.svg"
   xml:space="preserve"
   inkscape:version="1.3.2 (091e20e, 2023-11-25, custom)"
   xmlns:inkscape="http://www.inkscape.org/namespaces/inkscape"
   xmlns:sodipodi="http://sodipodi.sourceforge.net/DTD/sodipodi-0.dtd"
   xmlns="http://www.w3.org/2000/svg"
   xmlns:svg="http://www.w3.org/2000/svg"><defs
     id="defs1" /><sodipodi:namedview
     id="namedview1"
     pagecolor="#ffffff"
     bordercolor="#000000"
     borderopacity="0.25"
     inkscape:showpageshadow="2"
     inkscape:pageopacity="0.0"
     inkscape:pagecheckerboard="0"
     inkscape:deskcolor="#d1d1d1"
     inkscape:zoom="48.875"
     inkscape:cx="12"
     inkscape:cy="12"
     inkscape:window-width="2560"
     inkscape:window-height="1369"
     inkscape:window-x="5112"
     inkscape:window-y="-8"
     inkscape:window-maximized="1"
     inkscape:current-layer="svg1" /><path
     style="fill:#90ee90;fill-opacity:1;stroke-width:0"
     d="M 11.449555,20.076688 C 10.230598,19.979011 9.2338858,19.699387 8.1966672,19.164102 7.4593631,18.783597 6.8608862,18.348265 6.2505201,17.748481 5.0624248,16.580981 4.2787322,15.122431 3.9581041,13.482004 3.4857741,11.065426 4.1654676,8.5228228 5.7871159,6.6400203 6.9793987,5.2557291 8.609226,4.3118998 10.417733,3.9584395 c 2.626054,-0.5132442 5.376274,0.3325331 7.283782,2.2399881 1.167027,1.1669947 1.951363,2.6593808 2.250434,4.2819924 0.100438,0.544871 0.126051,0.843583 0.126051,1.469525 0,0.625324 -0.02548,0.922775 -0.125844,1.469526 -0.381052,2.075729 -1.568719,3.938442 -3.291104,5.161712 -1.124307,0.798501 -2.398947,1.286452 -3.804463,1.456403 -0.268553,0.03247 -1.175298,0.05767 -1.407034,0.0391 z"
     id="path3" /><path
     style="fill:#6c757d;stroke-width:0"
     d="M 11.41688,21.972304 C 7.5414869,21.739681 4.1362914,19.274414 2.715347,15.672634 1.672481,13.0292 1.7917768,10.133213 3.0486877,7.5805627 3.536937,6.5889809 4.1562077,5.7247654 4.9404865,4.9404865 7.0957307,2.7852423 10.129388,1.7266764 13.14578,2.077327 c 3.393695,0.3945115 6.366745,2.5103053 7.847983,5.5850771 1.022536,2.1225931 1.263947,4.5176959 0.684675,6.7928389 -0.912412,3.583578 -3.708775,6.356898 -7.303156,7.242971 -0.979061,0.241354 -1.971679,0.333318 -2.958402,0.27409 z m 1.473146,-2.012148 c 0.98051,-0.113649 1.861368,-0.377569 2.731457,-0.818391 0.532718,-0.269896 0.937155,-0.531264 1.438179,-0.929426 0.29201,-0.23206 0.930571,-0.87353 1.175126,-1.180481 0.969294,-1.216601 1.545432,-2.601707 1.727059,-4.152063 0.04482,-0.382562 0.0509,-1.291008 0.01116,-1.667519 C 19.806607,9.6356534 19.220226,8.2040673 18.234601,6.9681424 17.844454,6.4789166 17.150772,5.8267002 16.639689,5.4685665 16.105159,5.0940027 15.428441,4.7323683 14.85422,4.5144217 12.405656,3.585065 9.6659206,3.9057042 7.5001117,5.3750944 7.0599626,5.6737131 6.7552352,5.9279274 6.3415812,6.3415812 5.6920692,6.9910932 5.2622611,7.5812698 4.8581414,8.3785166 c -1.339892,2.6433374 -1.111908,5.8140004 0.5921522,8.2352944 0.3828178,0.543944 1.0318482,1.234769 1.5369187,1.635888 0.2746619,0.218132 0.7772149,0.558891 1.0639386,0.721411 1.0123971,0.573845 2.1163361,0.909594 3.3452681,1.017424 0.300172,0.02634 1.162974,0.0099 1.493607,-0.02838 z"
     id="path2" /></svg>
