<?xml version="1.0" encoding="UTF-8" standalone="no"?>
<svg
   viewBox="0 0 24 24"
   version="1.1"
   id="svg1"
   sodipodi:docname="circle-outline-red.svg"
   xml:space="preserve"
   inkscape:version="1.3.2 (091e20e, 2023-11-25, custom)"
   xmlns:inkscape="http://www.inkscape.org/namespaces/inkscape"
   xmlns:sodipodi="http://sodipodi.sourceforge.net/DTD/sodipodi-0.dtd"
   xmlns="http://www.w3.org/2000/svg"
   xmlns:svg="http://www.w3.org/2000/svg"><defs
     id="defs1" /><sodipodi:namedview
     id="namedview1"
     pagecolor="#ffffff"
     bordercolor="#000000"
     borderopacity="0.25"
     inkscape:showpageshadow="2"
     inkscape:pageopacity="0.0"
     inkscape:pagecheckerboard="0"
     inkscape:deskcolor="#d1d1d1"
     inkscape:zoom="22.627417"
     inkscape:cx="15.269087"
     inkscape:cy="13.987456"
     inkscape:window-width="2560"
     inkscape:window-height="1369"
     inkscape:window-x="5112"
     inkscape:window-y="-8"
     inkscape:window-maximized="1"
     inkscape:current-layer="svg1" /><path
     style="fill:#dc3545;fill-opacity:1;stroke-width:0"
     d="M 11.169838,20.043767 C 10.084947,19.926388 9.1389474,19.642327 8.185269,19.147568 7.5500682,18.818032 7.0024969,18.433634 6.4657425,17.94045 4.9495088,16.547294 4.0374375,14.69507 3.8451639,12.618606 3.8197607,12.344262 3.8195725,11.576792 3.8448402,11.297305 4.0535002,8.9892846 5.1657869,6.9386569 6.9753025,5.5259373 7.1936738,5.3554512 7.6776791,5.0326689 7.9304147,4.8889748 8.1979507,4.7368658 8.6838053,4.5034025 8.9571602,4.3956021 10.904133,3.6277931 12.984832,3.6281399 14.945828,4.3966 c 0.453459,0.1776985 1.09699,0.5166014 1.524883,0.8030498 0.701881,0.469869 1.374045,1.097 1.903064,1.7755631 0.163678,0.2099484 0.491702,0.6994055 0.624126,0.9312791 0.513018,0.8983064 0.857381,1.904128 1.005579,2.937111 0.04672,0.325602 0.06452,0.630793 0.06452,1.106393 0,0.643711 -0.03437,1.017729 -0.144089,1.56805 -0.142286,0.713673 -0.356377,1.342537 -0.682868,2.005832 -0.419491,0.852232 -0.874298,1.487239 -1.551808,2.166643 -0.436713,0.437937 -0.780252,0.719634 -1.275303,1.045736 -1.032462,0.680108 -2.14783,1.095999 -3.421409,1.275753 -0.407892,0.05756 -1.420948,0.07521 -1.82267,0.03177 z"
     id="path7" /><path
     style="fill:#6c757d;fill-opacity:1;stroke-width:0"
     d="M 10.893864,21.91565 C 7.9219921,21.553741 5.3465478,19.974971 3.6874635,17.498062 2.6039591,15.880457 2.0315159,13.968109 2.0346731,11.976621 2.0371023,10.444342 2.378334,8.9783964 3.0489489,7.6192497 4.0364253,5.6179143 5.6179143,4.0364253 7.6192497,3.0489489 9.7121647,2.0162864 12.126504,1.7584412 14.410756,2.3236339 c 1.726219,0.4271186 3.355461,1.3518087 4.63335,2.6296969 3.054612,3.0546124 3.799794,7.7045432 1.850067,11.5444092 -1.372735,2.703515 -3.917516,4.655189 -6.869301,5.268286 -0.888863,0.184619 -2.292734,0.251708 -3.131008,0.149624 z m 2.408582,-1.999037 c 2.246724,-0.385772 4.137907,-1.616714 5.409739,-3.521118 0.990684,-1.483421 1.458702,-3.431469 1.261133,-5.249256 C 19.687603,8.5174481 18.157926,6.2315711 15.819195,4.9385148 15.147684,4.5672441 14.195499,4.2426064 13.302446,4.0804555 c -0.585447,-0.1062993 -2.022009,-0.1062993 -2.607456,0 C 7.883008,4.5910252 5.6270151,6.3905108 4.5772099,8.9602834 4.1544901,9.9950414 4.0042246,10.791871 4.0042246,11.998718 c 0,0.946253 0.048602,1.338379 0.2656647,2.143418 0.4257355,1.578959 1.4113818,3.071286 2.7348872,4.140779 1.1006458,0.889406 2.5978392,1.508767 4.0879615,1.691114 0.451553,0.05526 1.749993,0.02152 2.209708,-0.05742 z"
     id="path8" /></svg>
