<?xml version="1.0" encoding="UTF-8" standalone="no"?>
<!-- Created with Inkscape (http://www.inkscape.org/) -->

<svg
   width="145.90015mm"
   height="130.52359mm"
   viewBox="0 0 145.90015 130.52359"
   version="1.1"
   id="svg1"
   xml:space="preserve"
   sodipodi:docname="PrinterLine3.svg"
   inkscape:version="1.3.2 (091e20e, 2023-11-25, custom)"
   xmlns:inkscape="http://www.inkscape.org/namespaces/inkscape"
   xmlns:sodipodi="http://sodipodi.sourceforge.net/DTD/sodipodi-0.dtd"
   xmlns="http://www.w3.org/2000/svg"
   xmlns:svg="http://www.w3.org/2000/svg"><sodipodi:namedview
     id="namedview1"
     pagecolor="#ffffff"
     bordercolor="#000000"
     borderopacity="0.25"
     inkscape:showpageshadow="2"
     inkscape:pageopacity="0.0"
     inkscape:pagecheckerboard="0"
     inkscape:deskcolor="#d1d1d1"
     inkscape:document-units="mm"
     inkscape:zoom="0.52248527"
     inkscape:cx="586.61941"
     inkscape:cy="483.26722"
     inkscape:window-width="2560"
     inkscape:window-height="1369"
     inkscape:window-x="5112"
     inkscape:window-y="-8"
     inkscape:window-maximized="1"
     inkscape:current-layer="layer1" /><defs
     id="defs1"><pattern
       id="EMFhbasepattern"
       patternUnits="userSpaceOnUse"
       width="6"
       height="6"
       x="0"
       y="0" /></defs><g
     inkscape:label="Layer 1"
     inkscape:groupmode="layer"
     id="layer1"
     transform="translate(-1.8774908,-1.415765)"><g
       id="g1"
       transform="translate(1.2532609,-70.003572)"><path
         style="display:inline;opacity:1;fill:none;stroke:#000000;stroke-width:1.765;stroke-dasharray:none;stroke-opacity:1"
         d="m 1.5226425,140.02727 1.139386,23.29412 3.164962,5.57033 109.3810695,32.02941 29.49744,-37.47314 0.2532,-11.01407 0.63299,-2.15217 -3.54476,-20.25576 -1.39258,-2.78516 -1.39258,-0.75959 -7.59591,-2.53197 -22.53453,32.789 -90.517895,-24.30691 11.773659,-15.57161 3.418158,-4.93734 1.661604,-7.23194 1.661604,-4.55754 -4.209398,-0.996961 h -1.012788 l -3.544755,7.849101 -4.17775,5.44374 -0.759592,1.64578 z"
         id="path3"
         sodipodi:nodetypes="ccccccccccccccccccccccc" /><path
         style="display:inline;opacity:1;fill:none;stroke:#000000;stroke-width:1.765;stroke-dasharray:none;stroke-opacity:1"
         d="m 25.069956,124.07587 89.758304,24.05371 1.77238,-2.27878 -90.011502,-24.3069 z"
         id="path4" /><path
         style="display:inline;opacity:1;fill:none;stroke:#000000;stroke-width:1.765;stroke-dasharray:none;stroke-opacity:1"
         d="m 129.4887,131.36859 3.8493,0.93995 -2.73032,4.29689 -4.02834,-1.02946 z"
         id="path5" /><path
         style="display:inline;opacity:1;fill:none;stroke:#000000;stroke-width:1.765;stroke-dasharray:none;stroke-opacity:1"
         d="m 2.7963065,163.23187 110.3861735,32.49873 1.51919,-0.633 -1.64578,-23.42071 -2.91177,-2.27877 L 1.6933415,140.81824 Z"
         id="path6"
         sodipodi:nodetypes="ccccccc" /><path
         style="display:inline;opacity:1;fill:none;stroke:#000000;stroke-width:1.765;stroke-dasharray:none;stroke-opacity:1"
         d="m 113.81548,195.3508 1.89897,-0.75959 29.87724,-43.99296 -3.92455,-21.64834 -0.88619,-0.94949 -27.85166,41.3977 -0.1266,2.53197"
         id="path7"
         sodipodi:nodetypes="ccccccc" /><path
         style="opacity:1;fill:none;stroke:#000000;stroke-width:1.765;stroke-dasharray:none;stroke-opacity:1"
         d="m 111.81228,144.50363 5.67455,-26.25129 2.53197,-8.1023 2.78517,-5.95013 3.92455,-5.950131 4.68414,-5.19054 -77.60485,-20.63555 -4.937342,6.45652 -6.203323,10.12788 -4.937342,9.49489 -2.405369,6.709721 -2.025576,10.00127 -1.64578,7.46931 z"
         id="path8"
         sodipodi:nodetypes="cccccccccccccc" /><path
         style="opacity:1;fill:none;stroke:#000000;stroke-width:1.765;stroke-dasharray:none;stroke-opacity:1"
         d="m 113.11918,144.90132 1.70908,-8.03901 2.78517,-9.36828 3.67136,-5.69694 3.41815,-4.30434 3.54476,-2.02558 2.65857,0.3798 2.53197,1.64578 1.39258,3.54475 0.88619,4.17775"
         id="path9"
         sodipodi:nodetypes="cccccccccc" /><path
         style="opacity:1;fill:none;stroke:#000000;stroke-width:1.765;stroke-dasharray:none;stroke-opacity:1"
         d="m 120.65179,140.28047 0.1266,-3.67136 0.88619,-3.79795 1.89898,-2.78517 1.77238,-0.88618 1.64578,0.75958 0.25319,0.5064"
         id="path10" /><path
         style="opacity:1;fill:none;fill-opacity:1;stroke:#000000;stroke-width:1.765;stroke-dasharray:none;stroke-opacity:1"
         d="m 128.3743,115.46717 -9.36829,-2.53197"
         id="path18" /><path
         style="opacity:1;fill:none;fill-opacity:1;stroke:#000000;stroke-width:1.765;stroke-dasharray:none;stroke-opacity:1"
         d="m 113.05589,195.4774 0.24528,4.8503 1.93854,0.58552 0.97323,-1.39259 -0.37189,-4.80282"
         id="path19"
         sodipodi:nodetypes="ccccc" /></g></g></svg>
