<?xml version="1.0" encoding="UTF-8" standalone="no"?>
<svg
   width="2470"
   height="395"
   viewBox="0 0 190.44287 30.455441"
   version="1.1"
   id="svg7"
   sodipodi:docname="sinclairlogo.svg"
   inkscape:version="1.3.2 (091e20e, 2023-11-25, custom)"
   inkscape:export-filename="sinclairlogo.png"
   inkscape:export-xdpi="7.912673"
   inkscape:export-ydpi="7.912673"
   xmlns:inkscape="http://www.inkscape.org/namespaces/inkscape"
   xmlns:sodipodi="http://sodipodi.sourceforge.net/DTD/sodipodi-0.dtd"
   xmlns="http://www.w3.org/2000/svg"
   xmlns:svg="http://www.w3.org/2000/svg">
  <defs
     id="defs7" />
  <sodipodi:namedview
     id="namedview7"
     pagecolor="#000000"
     bordercolor="#000000"
     borderopacity="0.25"
     inkscape:showpageshadow="2"
     inkscape:pageopacity="0.0"
     inkscape:pagecheckerboard="true"
     inkscape:deskcolor="#d1d1d1"
     inkscape:zoom="0.4692"
     inkscape:cx="1040.0682"
     inkscape:cy="199.27536"
     inkscape:window-width="2560"
     inkscape:window-height="1369"
     inkscape:window-x="2552"
     inkscape:window-y="-8"
     inkscape:window-maximized="1"
     inkscape:current-layer="svg7" />
  <g
     id="g7"
     transform="matrix(0.98799998,0,0,1,-11.527232,52.584743)">
    <rect
       style="fill:#000000;stroke-width:0.12297"
       id="rect1"
       width="192.75595"
       height="30.455441"
       x="11.667239"
       y="-52.584743"
       rx="1.5420476"
       ry="1.5420476" />
  </g>
  <g
     id="g1"
     transform="translate(1.6774378,1.1567203)">
    <path
       fill="#cc2229"
       d="m 136.553,27.761 h 9.476 L 158.654,0 h -9.476 z"
       id="path2"
       style="clip-rule:evenodd;fill-rule:evenodd" />
    <path
       fill="#33a457"
       d="m 155.508,27.761 h 9.478 L 177.609,0 h -9.476 z"
       id="path3"
       style="clip-rule:evenodd;fill-rule:evenodd" />
    <path
       fill="#db812e"
       d="m 146.031,27.761 h 9.477 L 168.131,0 h -9.477 z"
       id="path4"
       style="clip-rule:evenodd;fill-rule:evenodd" />
    <path
       fill="#00acec"
       d="m 164.986,27.761 h 9.477 L 187.088,0 h -9.479 z"
       id="path5"
       style="clip-rule:evenodd;fill-rule:evenodd" />
    <path
       d="M 0,13.465 H 23.636 V 17.54 H 5.025 c -0.439,0 -0.43,1.217 0,1.217 h 18.612 v 9.291 H 0 v -4.014 h 18.438 c 0.703,0 0.732,-1.42 0,-1.42 H 0 Z M 78.97,9.22 v 18.922 h 4.515 V 9.22 Z m 29.727,4.229 v 14.582 h 4.516 V 13.449 Z m 0,-4.542 h 4.516 v 3.806 h -4.516 z M 30.165,28.048 V 13.465 H 53.757 V 28.048 H 49.039 V 17.541 H 34.934 V 28.048 Z M 54.611,13.465 h 23.44 v 4.076 H 59.177 v 6.494 h 18.874 v 4.013 h -23.44 z m 29.867,0 h 23.339 V 28.048 H 84.478 V 18.757 H 102.7 c 0.479,0 0.486,-1.217 0,-1.217 H 84.478 Z m 5.227,9.15 c -0.809,0 -0.741,1.42 0,1.42 h 12.75 c 0.803,0 0.82,-1.42 0,-1.42 z m 24.486,-9.15 h 22.934 v 4.076 h -18.113 v 10.507 h -4.821 z m -89.548,0 v 14.583 h 4.516 V 13.465 Z m 0,-4.541 h 4.516 v 3.805 h -4.516 z"
       id="path6"
       style="clip-rule:evenodd;fill:#ffffff;fill-opacity:1;fill-rule:evenodd;stroke:none;stroke-width:0.154205;stroke-dasharray:none;stroke-opacity:1" />
  </g>
</svg>
