<?xml version="1.0" encoding="UTF-8" standalone="no"?>
<svg
   id="svg2"
   width="1202.7"
   height="117.33"
   version="1.1"
   viewBox="0 0 1202.7 117.33"
   xml:space="preserve"
   sodipodi:docname="timexsinclairlogo.svg"
   inkscape:export-filename="timexsinclairlogo.png"
   inkscape:export-xdpi="24.546152"
   inkscape:export-ydpi="24.546152"
   inkscape:version="1.3.2 (091e20e, 2023-11-25, custom)"
   xmlns:inkscape="http://www.inkscape.org/namespaces/inkscape"
   xmlns:sodipodi="http://sodipodi.sourceforge.net/DTD/sodipodi-0.dtd"
   xmlns="http://www.w3.org/2000/svg"
   xmlns:svg="http://www.w3.org/2000/svg"
   xmlns:rdf="http://www.w3.org/1999/02/22-rdf-syntax-ns#"
   xmlns:cc="http://creativecommons.org/ns#"
   xmlns:dc="http://purl.org/dc/elements/1.1/"><defs
     id="defs1" /><sodipodi:namedview
     id="namedview1"
     pagecolor="#ffffff"
     bordercolor="#000000"
     borderopacity="0.25"
     inkscape:showpageshadow="2"
     inkscape:pageopacity="0.0"
     inkscape:pagecheckerboard="true"
     inkscape:deskcolor="#d1d1d1"
     inkscape:zoom="1.2022949"
     inkscape:cx="601.34998"
     inkscape:cy="58.637861"
     inkscape:window-width="2560"
     inkscape:window-height="1369"
     inkscape:window-x="2552"
     inkscape:window-y="-8"
     inkscape:window-maximized="1"
     inkscape:current-layer="svg2" /><metadata
     id="metadata8"><rdf:RDF><cc:Work
         rdf:about=""><dc:format>image/svg+xml</dc:format><dc:type
           rdf:resource="http://purl.org/dc/dcmitype/StillImage" /></cc:Work></rdf:RDF></metadata><g
     id="g10"
     transform="matrix(1.3333 0 0 -1.3333 0 117.33)"><path
       id="path14"
       d="m0 77.84c0 5.6106 4.5496 10.16 10.15 10.16h881.7c5.6 0 10.15-4.5496 10.15-10.16v-67.68c0-5.6106-4.55-10.16-10.15-10.16h-881.7c-5.6004 0-10.15 4.5496-10.15 10.16v67.68" /><path
       id="path16"
       d="m346.26 81.81h543.42c5.07 0 7.179-2.1204 7.179-7.1903v-61.24c0-5.0696-2.109-7.1906-7.179-7.1906h-543.42v75.621"
       fill="#fff"
       style="fill:#ffffff;fill-opacity:1" /><path
       id="path18"
       d="m671.61 16h16v60h-16z" /><path
       id="path20"
       d="m708 32h40v-4h-40zm-16 28v-12h56v-4h-56v-28h72v44h-72" /><path
       id="path22"
       d="m767.61 16h16v44h-16z" /><path
       id="path24"
       d="m767.61 64h16v12h-16z" /><path
       id="path26"
       d="m788 60v-44h16v32h64v12h-80" /><path
       id="path28"
       d="m588 60v-44h80v12h-64v20h64v12h-80" /><path
       id="path30"
       d="m504 60v-44h16v32h48v-32h16v44h-80" /><path
       id="path32"
       d="m483.61 16h15.999v44h-15.999z" /><path
       id="path34"
       d="m483.61 64h15.999v12h-15.999z" /><path
       id="path36"
       d="m400 60v-28h64v-4h-64v-12h80v28h-64v4h64v12h-80" /><path
       id="path38"
       d="m108.85 17h11.34v52h-11.34z"
       fill="#53c6f3" /><path
       id="path40"
       d="m288.91 69-11.17-15.51-11.16 15.51h-11.69l17.53-24.33-19.93-27.67h11.68l13.57 18.84 13.58-18.84h11.68l-19.93 27.67 17.52 24.33h-11.68"
       fill="#53c6f3" /><path
       id="path42"
       d="m184.79 69h-9.62l-13.23-31.28-13.23 31.28h-9.62l-7.9-52h9.96l4.84 31.81 13.03-31.81h5.84l13.04 31.81 4.83-31.81h9.97l-7.91 52"
       fill="#53c6f3" /><path
       id="path44"
       d="m68.3 59.36v-42.36h11.341v42.36h21.31v9.6402h-53.95v-9.6402h21.3"
       fill="#53c6f3" /><path
       id="path46"
       d="m204.38 69v-52h43.64v8.9504h-32.99v13.089h28.52v8.9504h-28.52v12.06h32.99v8.95h-43.64"
       fill="#53c6f3" /></g></svg>
